Trial48_full_EMG.mot
version=1
nRows=25
nColumns=29
inDegrees=no
endheader
time	AddMag	AddLong	GlutMaxMed	GlutMed	Iliopsoas	Sartorius	SemiMemb	SemiTend	BicFemLong	RecFem	TenFascLat	Gracilis	BicFemShort	VastMed	VastLat	VastInt	GasMed	GasLat	TibAnt	TibPost	ExtHalLong	FlexHalLong	PeroneusLong	Sol	ExtDigLong	GlutMaxLat	FlexDigLong	RecFem2
30	0.00640869	0.00534058	0.0656128	0.00823975	0.00366211	-0.00152588	-0.0012207	0.0038147	-0.00213623	-0.0137329	0.0244141	0.0109863	0.0422668	0.00656128	-0.00366211	-0.00411987	-0.0294495	-0.0109863	0.0187683	-0.00106812	-0.00579834	-0.00137329	-0.00411987	0.00213623	-0.00183105	0.0144958	0.00854492	-0.030365
30.001	-0.00350952	0.00595093	0.0782776	0.00564575	0.000610352	-0.000305176	0.000762939	0.0038147	0.00686646	-0.00732422	-0.0335693	0.0119019	0.040741	0.0131226	0.000152588	-0.0038147	-0.0366211	-0.0163269	0.0180054	-0.00854492	-0.010376	0.00518799	-0.0112915	-0.0166321	-0.00259399	0.00457764	-0.00228882	-0.0247192
30.002	-0.0100708	0.00671387	0.067749	0.00656128	-0.00564575	0.000915527	0.000305176	0.00473022	0.00518799	-0.00930786	0.0280762	-0.000305176	0.0350952	0.00930786	0.00198364	-0.000610352	-0.0431824	-0.0215149	0.0227356	-0.00549316	-0.0062561	0.00228882	-0.00274658	-0.0248718	-0.00198364	0.0238037	0.00213623	-0.0314331
30.003	-0.00213623	0.0109863	0.0750732	0.00808716	-0.000457764	0.00137329	0.000457764	0.00808716	0.000305176	-0.0132751	0.0271606	0.00778198	0.0239563	0.00305176	0.000610352	-0.00152588	-0.0317383	-0.00686646	0.0233459	-0.00320435	-0.0108337	0.00152588	-0.0050354	-0.032196	-0.00213623	0.0128174	-0.00396729	-0.0276184
30.004	-0.00854492	-0.00595093	0.0593567	0.00213623	-0.00335693	0.0012207	0.000457764	0.00457764	0.00259399	-0.00900269	0.00167847	0.0161743	0.0193787	-0.00610352	-0.000610352	-0.00640869	-0.035553	0.000152588	0.0234985	-0.00610352	-0.00793457	0.000610352	-0.0088501	-0.0236511	-0.0102234	0.0100708	0.000152588	-0.0294495
30.005	-0.0123596	0.0109863	0.0598145	0.0088501	0.00534058	0.00289917	0.000610352	0.00686646	0.00808716	-0.00579834	0.00366211	0.0038147	-0.0109863	-0.00579834	0.00534058	-0.00595093	-0.0369263	-0.0157166	0.0244141	-0.00350952	-0.01297	-0.0012207	-0.00823975	0.00259399	-0.00564575	0.0151062	0.000457764	-0.0344849
30.006	-0.0115967	0.00961304	0.0494385	0.00518799	0.00305176	0.00244141	0.000762939	0.00534058	0.00427246	-0.00900269	-0.00579834	0.0285339	0.00946045	-0.00457764	0.00305176	-0.00656128	-0.0341797	-0.0123596	0.0239563	-0.0126648	-0.00976563	0.000762939	-0.0111389	-0.0216675	-0.00305176	0.0247192	-0.00198364	-0.0257874
30.007	-0.00717163	0.00656128	0.039978	0.00549316	0.00259399	0.00579834	0.00778198	0.00442505	0.00213623	-0.00488281	0.00946045	0.0236511	0.00564575	-0.00854492	0.00518799	-0.00579834	-0.0341797	-0.0102234	0.0242615	-0.00930786	-0.010376	0.000762939	-0.0138855	-0.0424194	0.00717163	0.0219727	0.000915527	-0.0350952
30.008	-0.0131226	0.00671387	0.0195313	0.00244141	0.000915527	-0.00198364	-0.00106812	0.00411987	0.00427246	-0.0117493	0.0100708	0.00808716	0.00976563	-0.00976563	0.0012207	-0.000152588	-0.043335	-0.00869751	0.0218201	-0.0134277	-0.00213623	0.00137329	-0.00991821	-0.0630188	-0.0012207	-0.00640869	-0.000152588	-0.040741
30.009	-0.0106812	0.00457764	-0.0109863	0.00473022	0.00289917	-0.00686646	0.00259399	0.00213623	0	0.00183105	-0.00579834	0.0143433	0.0117493	-0.00488281	0.00427246	0.00473022	-0.0291443	-0.00442505	0.018158	-0.000457764	-0.00823975	0.00137329	-0.0038147	-0.0610352	-0.00335693	0.0253296	-0.00106812	-0.0450134
30.01	-0.00961304	0.00778198	-0.040741	0.00244141	-0.0123596	0.00335693	-0.00213623	0.00656128	-0.00244141	0.00259399	0.0239563	0.0143433	-0.00106812	-0.0138855	0.00244141	-0.00457764	-0.0331116	-0.00732422	0.0190735	-0.00839233	-0.00534058	-0.000610352	-0.00411987	-0.0724792	-0.00732422	0.00335693	0.00274658	-0.0572205
30.011	-0.0166321	0.00457764	-0.0566101	-0.00106812	0.000152588	-0.00991821	0.000305176	0.00274658	0.000305176	0.00671387	0.0189209	0.00213623	-0.00396729	-0.015564	0.000762939	-0.0038147	-0.0273132	-0.0102234	0.0193787	-0.00900269	-0.00442505	-0.00427246	-0.00564575	-0.0604248	-0.00350952	0.00808716	-0.00259399	-0.0471497
30.012	-0.0146484	0.00167847	-0.0813293	0.00213623	-0.00152588	0.00457764	0.00396729	0.00244141	-0.00549316	-0.0396729	0.027771	0.0236511	-0.00564575	-0.00534058	0.00473022	-0.00137329	-0.0216675	-0.00137329	0.0164795	-0.00808716	0.000762939	-0.00305176	-0.00228882	-0.0468445	-0.00106812	0.0131226	0.0012207	-0.0457764
30.013	-0.0128174	0.00808716	-0.119476	0.00289917	0.00534058	0.00686646	0.00244141	-0.00366211	0.0088501	-0.0190735	0.0424194	0.0195313	-0.0100708	-0.0108337	-0.00289917	0.00274658	-0.035553	0.000915527	0.0146484	-0.00778198	0.00274658	0.00244141	-0.00183105	-0.0363159	-0.00305176	-0.0050354	-0.00320435	-0.0344849
30.014	-0.0212097	0.00305176	-0.123749	-0.000915527	0.000610352	-0.0146484	0.00259399	-0.000610352	0.000610352	-0.00946045	-0.00457764	0.0158691	0.0012207	-0.00961304	0.00274658	0.00228882	-0.0212097	0.00701904	0.0115967	-0.0105286	0.000152588	0.00457764	0.00305176	-0.0538635	0.000152588	0.0175476	-0.000305176	-0.0386047
30.015	-0.0259399	0.00839233	-0.153656	0.00579834	0.00671387	-0.0125122	-0.00198364	0.00198364	-0.0012207	-0.0154114	0.0186157	0.0170898	-0.0218201	-0.00671387	0.00457764	0.00549316	-0.0180054	0.0100708	0.00900269	-0.00534058	-0.00213623	-0.00579834	-0.0038147	-0.0822449	-0.00183105	-0.00579834	-0.000457764	-0.0358582
30.016	-0.0117493	0.00228882	-0.163727	0.00549316	0.00747681	-0.00289917	0.00228882	0.00640869	0.00579834	-0.0112915	0.0398254	0.0114441	-0.0196838	-0.00793457	-0.00198364	0.00839233	-0.0270081	-0.00244141	0.00808716	-0.00259399	-0.00244141	-0.00457764	-0.0050354	-0.0718689	-0.000457764	-0.000610352	0.00106812	-0.0416565
30.017	-0.00900269	0.00564575	-0.168762	0.00640869	0.000457764	0.0038147	0.00228882	0.00366211	-0.00106812	-0.00213623	0.018158	0.00930786	-0.00167847	-0.00717163	-0.000915527	-0.000915527	-0.0378418	0.000610352	0.0102234	-0.00671387	-0.00762939	-0.00869751	-0.0126648	-0.0717163	-0.00213623	-0.00274658	0.000610352	-0.0280762
30.018	-0.0228882	0.00762939	-0.164032	0.00869751	0.00549316	0.00656128	0.00213623	0	0.00686646	-0.0149536	0.0137329	0.0247192	0.00198364	-0.0109863	0.00411987	0.00579834	-0.037384	-0.000457764	0.00427246	-0.00106812	-0.0132751	0.0012207	-0.0132751	-0.080719	0.000305176	-0.0193787	0.00198364	-0.032959
30.019	-0.0100708	0.0102234	-0.166321	0.0111389	0.000305176	0.00671387	-0.00213623	0.00549316	0.0102234	-0.0169373	0.0354004	0.0202942	0.00396729	-0.0126648	-0.00152588	0.0112915	-0.032196	0.000610352	0.0100708	-0.0105286	-0.0178528	-0.00213623	-0.0117493	-0.0868225	-0.00137329	-0.00137329	0.00152588	-0.0260925
30.02	-0.00900269	0.00610352	-0.166931	0.00259399	0.00457764	-0.00488281	0.00183105	0.000152588	0.00152588	-0.0172424	0.0175476	0.0163269	0.00411987	-0.0137329	0.000610352	0.00793457	-0.0260925	-0.00915527	0.00610352	0	-0.0334167	-0.00137329	-0.0115967	-0.0978088	0.00137329	-0.00518799	-0.000305176	-0.0260925
30.021	-0.00823975	0.00869751	-0.170441	0.00823975	0.00686646	0.000152588	-0.00411987	0.000152588	-0.00198364	-0.0112915	0.042572	0.0169373	0.000915527	-0.00823975	0.000152588	0.0141907	-0.0222778	-0.00350952	0.00991821	-0.00915527	-0.0366211	0.000152588	-0.0140381	-0.106354	-0.00167847	0.0112915	0.000152588	-0.0230408
30.022	0.0038147	0.00549316	-0.192261	0.00427246	-0.00564575	-0.000457764	0.00137329	0.000610352	0.0012207	0.00396729	0.0352478	0.0062561	0.00793457	-0.0100708	0.0012207	0.00442505	-0.0352478	-0.00762939	-0.00305176	-0.00991821	-0.0338745	-0.00335693	-0.0120544	-0.109406	-0.0012207	-0.010376	-0.000305176	-0.00473022
30.023	0.000915527	0.0131226	-0.200653	0.00411987	0.00488281	0.000457764	0.00274658	0.00701904	0.00778198	0.0366211	0.0314331	0.00595093	-0.00289917	-0.00137329	-0.00152588	0.0126648	-0.0289917	0.000152588	-0.000762939	-0.0123596	-0.0248718	-0.000915527	-0.00961304	-0.115356	-0.00137329	-0.00793457	-0.00305176	-0.0202942
30.024	0.00411987	0.00991821	-0.209808	0.00640869	0.0114441	0.00335693	0.00152588	0.00213623	0.00732422	0.030365	0.0106812	0.0209045	0.00244141	-0.00274658	-0.00137329	0.00991821	-0.0315857	-0.000610352	-0.00137329	-0.0134277	-0.0213623	0.00549316	-0.0102234	-0.144806	-0.00305176	-0.00320435	0.000152588	-0.0157166
